<svg width="512" height="512" viewBox="0 0 24 24" fill="none" xmlns="http://www.w3.org/2000/svg">
    <path fill-rule="evenodd" clip-rule="evenodd" d="M12 7C13.3807 7 14.5 5.88071 14.5 4.5C14.5 3.11929 13.3807 2 12 2C10.6193 2 9.5 3.11929 9.5 4.5C9.5 5.88071 10.6193 7 12 7ZM12.7251 18.1794L14.7383 21.311C15.1862 22.0079 16.1143 22.2096 16.8112 21.7616C17.508 21.3137 17.7098 20.3856 17.2618 19.6887L14.0724 14.7275C14.0035 14.9657 13.9301 15.2047 13.852 15.444C13.5631 16.3282 13.1947 17.2595 12.7251 18.1794ZM12.9345 13.14C13.865 13.8933 15.0851 14.5673 16.6361 14.9551C17.4398 15.156 18.2542 14.6674 18.4551 13.8637C18.6561 13.06 18.1674 12.2456 17.3637 12.0447C15.3521 11.5417 14.2235 10.3895 13.7082 9.5839C13.5002 9.25874 13.1954 8.84252 12.7737 8.50533C12.3328 8.15275 11.7048 7.84345 10.9231 7.89012C8.90701 8.01048 6.44107 9.43303 5.57689 12.0255C5.31492 12.8115 5.73966 13.6609 6.52558 13.9229C7.31149 14.1849 8.16097 13.7601 8.42294 12.9742C8.73391 12.0413 9.50809 11.3857 10.2787 11.0786C10.1332 12.0066 9.90697 13.0279 9.5742 14.0466C8.87232 16.1951 7.76172 18.1357 6.13985 19.271C5.46118 19.7461 5.29613 20.6814 5.7712 21.3601C6.06262 21.7764 6.52721 21.9994 6.99951 22C7.29716 22.0004 7.59788 21.9124 7.86024 21.7287C10.2384 20.064 11.6278 17.4213 12.4259 14.9782C12.6277 14.3605 12.7958 13.7431 12.9345 13.14Z" fill="currentColor"/>
</svg>
