<svg width="50" height="47" viewBox="0 0 50 47" fill="none" xmlns="http://www.w3.org/2000/svg">
<path d="M8.03564 16.0714C8.03564 16.0714 9.04011 16.9643 10.7142 16.9643C12.3883 16.9643 13.3928 16.0714 13.3928 16.0714M16.0714 4.46429H5.35707C3.38463 4.46429 1.78564 6.06328 1.78564 8.03572V18.75C1.78564 20.7225 3.38463 22.3214 5.35707 22.3214H16.0714C18.0438 22.3214 19.6428 20.7225 19.6428 18.75V8.03572C19.6428 6.06328 18.0438 4.46429 16.0714 4.46429ZM15.1785 11.6072C15.1785 12.1003 14.7788 12.5 14.2856 12.5C13.7925 12.5 13.3928 12.1003 13.3928 11.6072C13.3928 11.114 13.7925 10.7143 14.2856 10.7143C14.7788 10.7143 15.1785 11.114 15.1785 11.6072ZM8.03564 11.6072C8.03564 12.1003 7.6359 12.5 7.14279 12.5C6.64968 12.5 6.24993 12.1003 6.24993 11.6072C6.24993 11.114 6.64968 10.7143 7.14279 10.7143C7.6359 10.7143 8.03564 11.114 8.03564 11.6072Z" stroke="white" stroke-width="1.5" stroke-linecap="round" stroke-linejoin="round"/>
<path fill-rule="evenodd" clip-rule="evenodd" d="M33.9285 26.7857H23.2143C21.2418 26.7857 19.6428 28.3847 19.6428 30.3571V41.0714C19.6428 43.0439 21.2418 44.6428 23.2143 44.6428H33.9285C35.901 44.6428 37.5 43.0439 37.5 41.0714V30.3571C37.5 28.3847 35.901 26.7857 33.9285 26.7857ZM26.3344 37.8894C26.0579 37.6469 25.6371 37.6727 25.3923 37.948C25.1466 38.2244 25.1715 38.6476 25.4479 38.8934L25.6935 39.0821C25.8385 39.1829 26.0464 39.313 26.3122 39.4418C26.8437 39.6996 27.6131 39.9554 28.5714 39.9554C29.5297 39.9554 30.2991 39.6996 30.8306 39.4418C31.0964 39.313 31.3043 39.1829 31.4493 39.0821C31.5219 39.0316 31.579 38.9882 31.62 38.9556L31.6949 38.8934C31.9713 38.6476 31.9962 38.2244 31.7505 37.948C31.5057 37.6727 31.0849 37.6469 30.8084 37.8894L30.6845 37.9826C30.5887 38.0492 30.441 38.1424 30.2463 38.2367C29.8571 38.4254 29.2873 38.6161 28.5714 38.6161C27.8555 38.6161 27.2857 38.4254 26.8965 38.2367C26.7018 38.1424 26.5541 38.0492 26.4583 37.9826L26.3344 37.8894ZM33.0357 33.9286C33.0357 34.4217 32.6359 34.8214 32.1428 34.8214C31.6497 34.8214 31.25 34.4217 31.25 33.9286C31.25 33.4355 31.6497 33.0357 32.1428 33.0357C32.6359 33.0357 33.0357 33.4355 33.0357 33.9286ZM25 34.8214C25.4931 34.8214 25.8928 34.4217 25.8928 33.9286C25.8928 33.4355 25.4931 33.0357 25 33.0357C24.5069 33.0357 24.1071 33.4355 24.1071 33.9286C24.1071 34.4217 24.5069 34.8214 25 34.8214Z" fill="#4E4E4E"/>
<path opacity="0.4" d="M33.9286 1.78571H44.6429C46.6153 1.78571 48.2143 3.38469 48.2143 5.35713V16.0714C48.2143 18.0439 46.6153 19.6428 44.6429 19.6428H33.9286C31.9562 19.6428 30.3572 18.0439 30.3572 16.0714V5.35713C30.3572 3.38469 31.9562 1.78571 33.9286 1.78571Z" fill="#59A776"/>
<path d="M43.7501 8.92856C43.7501 9.42167 43.3503 9.82142 42.8572 9.82142C42.3641 9.82142 41.9644 9.42167 41.9644 8.92856C41.9644 8.43545 42.3641 8.03571 42.8572 8.03571C43.3503 8.03571 43.7501 8.43545 43.7501 8.92856Z" fill="#59A776"/>
<path d="M36.6072 8.92856C36.6072 9.42167 36.2075 9.82142 35.7144 9.82142C35.2213 9.82142 34.8215 9.42167 34.8215 8.92856C34.8215 8.43545 35.2213 8.03571 35.7144 8.03571C36.2075 8.03571 36.6072 8.43545 36.6072 8.92856Z" fill="#59A776"/>
<path fill-rule="evenodd" clip-rule="evenodd" d="M37.0487 12.8894C36.7722 12.6469 36.3514 12.6727 36.1067 12.948C35.8609 13.2244 35.8858 13.6476 36.1623 13.8934L36.6072 13.3929C36.1623 13.8934 36.1621 13.8932 36.1623 13.8934L36.1631 13.8941L36.1641 13.895L36.1663 13.8969L36.1718 13.9017L36.1875 13.9151C36.2 13.9256 36.2165 13.9393 36.2371 13.9556C36.2781 13.9882 36.3353 14.0316 36.4078 14.0821C36.5528 14.1829 36.7607 14.313 37.0265 14.4418C37.558 14.6996 38.3275 14.9554 39.2857 14.9554C40.244 14.9554 41.0134 14.6996 41.5449 14.4418C41.8107 14.313 42.0187 14.1829 42.1636 14.0821C42.2362 14.0316 42.2933 13.9882 42.3344 13.9556C42.3549 13.9393 42.3715 13.9256 42.3839 13.9151L42.3996 13.9017L42.4052 13.8969L42.4074 13.895L42.4083 13.8941C42.4085 13.8939 42.4092 13.8934 41.9643 13.3929L42.4092 13.8934C42.6856 13.6476 42.7105 13.2244 42.4648 12.948C42.2201 12.6727 41.7992 12.6469 41.5227 12.8894L41.5219 12.8901C41.5189 12.8927 41.5116 12.8988 41.5014 12.9069C41.4809 12.9231 41.4465 12.9494 41.3988 12.9827C41.3031 13.0492 41.1553 13.1424 40.9606 13.2367C40.5714 13.4254 40.0016 13.6161 39.2857 13.6161C38.5699 13.6161 38 13.4254 37.6108 13.2367C37.4162 13.1424 37.2684 13.0492 37.1727 12.9827C37.1249 12.9494 37.0905 12.9231 37.0701 12.9069C37.0599 12.8988 37.0532 12.8932 37.0502 12.8907C37.0495 12.8901 37.049 12.8897 37.0487 12.8894C37.0487 12.8894 37.0487 12.8894 37.0487 12.8894ZM41.5227 12.8894L41.5219 12.8901L41.5208 12.8911L41.5202 12.8917C41.5211 12.8908 41.5218 12.8903 41.5227 12.8894Z" fill="#59A776"/>
</svg>
